<svg width="25" height="24" viewBox="0 0 25 24" fill="none" xmlns="http://www.w3.org/2000/svg">
<path d="M11.1918 3.2072C11.8171 2.26427 13.1829 2.26427 13.8082 3.2072L14.0162 3.52089C14.6396 4.4609 15.7952 4.88878 16.8755 4.57251L17.2341 4.46754C18.3018 4.15496 19.3603 5.03719 19.2391 6.17937L19.1993 6.55501C19.0802 7.67649 19.6906 8.75183 20.717 9.21153L21.0584 9.3644C22.0835 9.82351 22.3271 11.1965 21.5131 11.9884L21.244 12.2502C20.4374 13.0351 20.2259 14.2548 20.7173 15.2686L20.8817 15.6078C21.3814 16.6388 20.6841 17.8388 19.5726 17.9149L19.2002 17.9404C18.078 18.0172 17.1393 18.8185 16.8719 19.9146L16.7824 20.2814C16.5116 21.3918 15.2238 21.8572 14.3235 21.192L14.0221 20.9692C13.1157 20.2995 11.8843 20.2995 10.9779 20.9692L10.6765 21.192C9.77621 21.8572 8.48844 21.3918 8.21758 20.2814L8.12811 19.9146C7.86074 18.8185 6.92197 18.0172 5.7998 17.9404L5.42739 17.9149C4.31585 17.8388 3.61858 16.6388 4.11827 15.6078L4.28266 15.2686C4.77406 14.2548 4.56262 13.0351 3.75598 12.2502L3.48689 11.9884L3.13822 12.3468L3.48689 11.9884C2.67292 11.1965 2.91651 9.82352 3.94165 9.3644L4.28298 9.21153C5.30942 8.75183 5.91977 7.67649 5.80075 6.55501L5.76088 6.17937C5.63965 5.03719 6.69817 4.15496 7.76592 4.46754L8.12448 4.57251C9.20485 4.88878 10.3604 4.4609 10.9838 3.52089L11.1918 3.2072Z" stroke="#352F2F"/>
<path d="M18 12C18 15.0376 15.5376 17.5 12.5 17.5C9.46243 17.5 7 15.0376 7 12C7 8.96243 9.46243 6.5 12.5 6.5C15.5376 6.5 18 8.96243 18 12Z" stroke="#352F2F"/>
</svg>
