<svg width="148" height="130" viewBox="0 0 148 130" fill="none" xmlns="http://www.w3.org/2000/svg">
<path fill-rule="evenodd" clip-rule="evenodd" d="M122.067 79.5317L148 65L133.267 56.7444H122.067V79.5317ZM120.067 80.6523V56.7444H91.5826H91.1761L90.8849 56.4608C90.4015 55.9899 89.6874 55.2019 89.0858 54.3348C88.7845 53.9005 88.4975 53.4265 88.2828 52.9472C88.0729 52.4784 87.9023 51.9396 87.9023 51.3935C87.9023 50.6562 88.264 49.9331 88.6593 49.3129C89.074 48.6621 89.6414 47.9529 90.2573 47.2168C90.5158 46.9077 90.7851 46.5912 91.0611 46.2667C92.128 45.0126 93.2951 43.6407 94.3313 42.127C94.8045 41.4356 94.9058 40.6195 94.6207 39.7063C94.328 38.7688 93.6226 37.7347 92.4927 36.7593C90.2383 34.8131 86.4579 33.2497 81.7547 33.2497C76.9864 33.2497 73.2987 34.413 71.0002 36.0547C68.7068 37.6927 67.9018 39.6932 68.4224 41.552C68.9501 43.4365 70.299 44.1583 72.1876 44.7889C72.4743 44.8846 72.7855 44.9815 73.1082 45.0819L73.1085 45.082C73.7897 45.2939 74.5224 45.5218 75.184 45.7892C76.1987 46.1991 77.2238 46.762 78.0381 47.6873C79.3536 49.182 79.5974 50.9838 79.42 52.5299C79.2442 54.0627 78.6487 55.4412 78.1388 56.2689L77.8515 56.7352L77.3039 56.7443L51.942 57.1631V79.954C52.2067 80.0901 52.4585 80.2249 52.6932 80.3505L52.6934 80.3506L52.6942 80.351C52.8691 80.4446 53.0344 80.5331 53.1887 80.6133C53.7177 80.8885 54.1705 81.0975 54.6453 81.2335C55.5464 81.4915 56.6776 81.5296 58.6686 80.8966C60.8518 80.2026 61.7003 78.6538 62.6569 76.9077L62.7037 76.8223C63.1717 75.9685 63.7101 75.0006 64.5038 74.2696C65.3482 73.4919 66.4339 73.0181 67.9061 73.0181C69.4603 73.0181 70.8397 73.7292 71.9949 74.8288C73.1442 75.9227 74.1173 77.4401 74.9045 79.1873C76.4796 82.6833 77.3939 87.2868 77.3939 91.8566C77.3939 96.4508 76.3582 100.425 74.8172 103.284C74.0473 104.713 73.1351 105.893 72.1336 106.726C71.1345 107.558 69.9945 108.085 68.7996 108.085C66.6634 108.085 64.6481 106.872 63.0639 105.689C62.3142 105.129 61.6158 104.54 61.0123 104.031L60.868 103.909C60.207 103.352 59.7103 102.943 59.3401 102.715C59.1545 102.6 58.9779 102.487 58.8057 102.377L58.8052 102.376C58.0652 101.902 57.4063 101.479 56.4675 101.236C55.4579 100.975 54.0636 100.922 51.942 101.507V118.826L120.067 80.6523ZM49.942 119.946V100.761V100.03L50.639 99.8084C53.4111 98.9272 55.3928 98.8928 56.9683 99.3002C58.2467 99.6308 59.2122 100.255 59.9636 100.741C60.1141 100.838 60.2559 100.93 60.39 101.013C60.9132 101.335 61.5334 101.854 62.1567 102.38L62.2953 102.497C62.9053 103.011 63.5605 103.564 64.2605 104.086C65.8035 105.238 67.362 106.085 68.7996 106.085C69.3916 106.085 70.0943 105.821 70.8542 105.189C71.6117 104.559 72.3748 103.601 73.0566 102.336C74.4194 99.807 75.3939 96.1672 75.3939 91.8566C75.3939 87.5217 74.5214 83.2059 73.081 80.0088C72.3605 78.4095 71.5189 77.1369 70.616 76.2774C69.719 75.4237 68.809 75.0181 67.9061 75.0181C66.9213 75.0181 66.3232 75.3129 65.8586 75.7408C65.3433 76.2153 64.9474 76.8898 64.4575 77.7836L64.3492 77.9818C63.4262 79.673 62.231 81.8628 59.2746 82.8026C57.032 83.5155 55.4828 83.5537 54.0947 83.1562C53.425 82.9644 52.831 82.6817 52.2657 82.3876C52.0712 82.2864 51.8845 82.1865 51.6984 82.0868C51.3209 81.8846 50.9455 81.6836 50.5106 81.4756L49.942 81.2037V80.5734V57.1795H32L32 130L49.942 119.946ZM32 55.1795H49.942V34.128C48.5985 33.3765 46.6746 32.577 44.7843 32.3274C42.6617 32.0472 40.8209 32.4737 39.6941 34.1198C38.6703 35.6155 37.3372 36.4532 35.8522 36.472C34.4063 36.4903 33.0682 35.7272 32 34.5687L32 55.1795ZM32 30.8885L32 17.6301C32.5303 15.9931 33.1828 14.8047 33.8627 14.0444C34.4977 13.3343 35.0916 13.0651 35.5826 13.0369C36.0641 13.0094 36.6413 13.2024 37.2777 13.8223L37.3627 13.9051L37.3627 13.9051C38.8645 15.3679 40.1545 16.6244 41.583 17.4949C43.0907 18.4137 44.7252 18.8918 46.91 18.8918C48.7464 18.8918 50.034 18.3056 50.8594 17.4397C51.66 16.5998 51.942 15.5827 51.942 14.8462V11.1744L120.067 49.3477V54.7444H92.0006C91.6157 54.3401 91.1376 53.7836 90.7291 53.1948C90.472 52.8242 90.2563 52.4606 90.1081 52.1296C89.9551 51.788 89.9023 51.5436 89.9023 51.3935C89.9023 51.2607 89.9873 50.9505 90.3459 50.3878C90.685 49.8557 91.1786 49.2324 91.7912 48.5001C92.0302 48.2144 92.2858 47.9142 92.5527 47.6006C93.6247 46.341 94.8799 44.8663 95.9817 43.2567C96.8486 41.9901 96.9706 40.522 96.5298 39.1102C96.0966 37.7227 95.1268 36.3911 93.7996 35.2454C91.1401 32.9495 86.8794 31.2497 81.7547 31.2497C76.6949 31.2497 72.5649 32.4794 69.8378 34.4272C67.1055 36.3787 65.6768 39.1641 66.4964 42.0913C67.3089 44.9927 69.5338 46.0113 71.5541 46.6859C71.9285 46.8109 72.2838 46.9211 72.6268 47.0275C73.2572 47.223 73.8459 47.4056 74.4349 47.6436C75.3048 47.995 76.0108 48.4111 76.5367 49.0086C77.3655 49.9503 77.5684 51.1216 77.4331 52.3021C77.3257 53.2384 77.0093 54.1179 76.6928 54.7541L51.942 55.1629V33.555V32.9957L51.4654 32.7029C49.9696 31.784 47.5323 30.6729 45.0461 30.3446C42.5551 30.0158 39.7759 30.4595 38.0437 32.9901C37.2805 34.105 36.4918 34.4638 35.8269 34.4722C35.1274 34.481 34.2915 34.1069 33.4628 33.2048C32.9211 32.615 32.4176 31.8333 32 30.8885ZM122.067 50.4684V54.7444H129.698L122.067 50.4684ZM49.942 10.0537V14.8462C49.942 15.125 49.8208 15.6306 49.4117 16.0598C49.0275 16.4629 48.2991 16.8918 46.91 16.8918C45.0627 16.8918 43.7935 16.4999 42.6237 15.787C41.4016 15.0423 40.2619 13.9369 38.6732 12.3895C37.7461 11.4866 36.648 10.9726 35.4682 11.0402C34.298 11.1073 33.2446 11.7354 32.3719 12.7112C32.2454 12.8527 32.1214 13.0028 32 13.1614L32 0L49.942 10.0537Z" fill="#81C768"/>
</svg>
